<svg xmlns="http://www.w3.org/2000/svg" viewBox="0 0 96 96" role="img" aria-label="JB">
  <title>JB</title>
  <rect width="96" height="96" fill="#000"/>
  <path fill="#fff" d="M55.85 48.12c0 5.84-1.08 10.37-3.24 13.59-2.16 3.22-5.22 5.44-9.18 6.66-3.96 1.22-8.96 1.83-15 1.83s-10.99-.61-14.85-1.83c-3.86-1.22-6.83-3.44-8.91-6.66-2.08-3.22-3.12-7.75-3.12-13.59v-1.08h18v1.08c0 3.2.72 5.48 2.16 6.84 1.44 1.36 3.68 2.04 6.72 2.04s5.42-.69 7.02-2.07c1.6-1.38 2.4-3.65 2.4-6.81V25.8h18v22.32Z"/>
  <path fill="#fff" d="M85.75 45.72c2.72.52 4.85 1.54 6.39 3.06 1.54 1.52 2.31 3.88 2.31 7.08 0 2.96-.52 5.37-1.56 7.23-1.04 1.86-2.74 3.25-5.1 4.17-2.36.92-5.56 1.38-9.6 1.38h-39.9V25.8h38.7c10.56 0 15.84 3.7 15.84 11.1 0 2.28-.59 4.09-1.77 5.43-1.18 1.34-2.95 2.31-5.31 2.91v.48ZM69.97 42.48c1.36 0 2.33-.24 2.91-.72.58-.48.87-1.22.87-2.22 0-1.08-.28-1.86-.84-2.34-.56-.48-1.54-.72-2.94-.72H56.29v6h13.68Zm.42 15.78c1.6 0 2.73-.27 3.39-.81s.99-1.41.99-2.61-.32-2.14-.96-2.7c-.64-.56-1.78-.84-3.42-.84h-14.1v6.96h14.1Z"/>
</svg>
